# xmcd CD database file
#
# Track frame offsets:
#	150
#	14040
#	29674
#	48544
#	60983
#	83811
#	103248
#	119180
#	132116
#	162235
#	181669
#	204279
#	218828
#	230690
#	251300
#	267813
#	285788
#	304222
#	320722
#	338224
#
# Disc length: 4814 seconds
#
# Revision: 1
# Processed by: cddbd v1.5.1PL2 Copyright (c) Steve Scherf et al.
# Submitted via: Feurio! 1.68 - http://www.feurio.com
#
DISCID=2212cc14
DTITLE=Stefan Gwildis - Soulman
DYEAR=1900
DGENRE=Soul
TTITLE0=Allem Anschein nach bist Du´s
TTITLE1=Immer weiter
TTITLE2=Sie ist so süß
TTITLE3=Mitten vorm Dock nr.10
TTITLE4=Sie läßt mich nicht mehr los
TTITLE5=Wem bringt das was
TTITLE6=Schön, schön, schön
TTITLE7=Wirklich nicht fair
TTITLE8=Papa will da nicht mehr wohn´
TTITLE9=Laß ma' ruhig den Hut auf
TTITLE10=Que Sera, Sera
TTITLE11=Warum komm ich nur so selten dazu
TTITLE12=Laß mich nicht allein heut' Nacht
TTITLE13=Komm zu nix
TTITLE14=Mama mag ihn
TTITLE15=Ohne mich
TTITLE16=Wajakla
TTITLE17=Alis Bude
TTITLE18=Halt Mich
TTITLE19=Geh doch
EXTD=
EXTT0=
EXTT1=
EXTT2=
EXTT3=
EXTT4=
EXTT5=
EXTT6=
EXTT7=
EXTT8=
EXTT9=
EXTT10=
EXTT11=
EXTT12=
EXTT13=
EXTT14=
EXTT15=
EXTT16=
EXTT17=
EXTT18=
EXTT19=
PLAYORDER=
